<svg version="1.1" xmlns="http://www.w3.org/2000/svg" style="display: block;" viewBox="0 0 2048 2048" width="1024" height="1024" preserveAspectRatio="none">
<defs>
	<linearGradient id="Gradient1" gradientUnits="userSpaceOnUse" x1="415.006" y1="926.706" x2="410.669" y2="916.365">
		<stop class="stop0" offset="0" stop-opacity="1" stop-color="rgb(30,0,0)"/>
		<stop class="stop1" offset="1" stop-opacity="1" stop-color="rgb(63,6,11)"/>
	</linearGradient>
	<linearGradient id="Gradient2" gradientUnits="userSpaceOnUse" x1="408.864" y1="986.794" x2="329.74" y2="1054.46">
		<stop class="stop0" offset="0" stop-opacity="1" stop-color="rgb(0,0,0)"/>
		<stop class="stop1" offset="1" stop-opacity="1" stop-color="rgb(46,1,3)"/>
	</linearGradient>
</defs>
<path transform="translate(0,0)" fill="rgb(0,0,0)" d="M 0 0 L 2048 0 L 2048 2048 L 0 2048 L 0 0 z"/>
<path transform="translate(0,0)" fill="rgb(248,61,62)" d="M 643.734 959.48 C 660.521 959.217 677.518 958.301 694.138 960.356 C 711.587 962.513 728.499 981.917 726.782 999.472 C 723.749 1030.49 715.527 1064.62 708.321 1095.21 C 692.136 1095.53 675.946 1095.52 659.762 1095.18 C 662.183 1081.69 676.382 1017.64 675.278 1009.92 C 674.164 1008.77 673.799 1007.97 672.149 1007.62 C 669.961 1007.16 667.477 1007.58 665.781 1009.16 C 661.63 1013.05 650.173 1084.18 648.337 1095.32 L 623.75 1095.47 C 615.893 1095.44 608.036 1095.32 600.182 1095.12 C 601.365 1082.88 616.961 1013.87 615.004 1009.49 C 612.52 1007.45 612.642 1007.14 609.544 1006.86 C 606.862 1008.6 604.685 1012.33 603.954 1015.36 C 597.638 1041.51 594.028 1069.05 587.517 1095.15 C 571.861 1095.59 555.331 1095.31 539.666 1095.05 C 540.879 1082.34 544.542 1067.8 546.968 1055.06 L 565.481 959.987 C 590.715 959.193 618.155 959.791 643.734 959.48 z"/>
<path transform="translate(0,0)" fill="rgb(248,61,62)" d="M 246.25 1096.99 C 289.228 1085.76 344.708 1082.27 380.946 1053.38 C 410.521 1029.8 355.184 1005.8 341.42 991.522 C 332.617 982.461 327.98 970.146 328.621 957.529 C 329.366 943.144 337.241 928.527 348.156 919.247 C 373.912 897.352 403.829 898.888 435.499 898.717 C 449.734 898.64 464.482 897.91 478.488 898.86 C 472.844 900.408 466.38 901.781 460.614 903.126 C 463.12 905.709 463.363 905.786 466.251 907.658 C 487.448 903.548 509.895 900.237 531.494 899.889 C 543.951 898.084 569.648 898.811 582.597 899.579 C 577.948 900.514 571.515 901.877 566.876 901.697 C 530.439 903.896 440.488 915.681 411.059 941.991 C 408.418 944.351 406.328 949.207 406.591 952.97 C 406.9 958.895 411.982 964.798 416.572 968.182 C 440.12 985.542 462.937 990.86 467.562 1023.93 C 473.004 1062.83 442.883 1091.19 406.197 1095.66 C 392.43 1097.34 377.878 1095.85 364.014 1096.27 C 351.552 1096.12 337.283 1096.7 325.087 1096.12 C 334.204 1092.62 344.78 1090.3 354.335 1087.92 C 354.631 1084.37 353.511 1083.79 351.598 1081.24 C 324.686 1089.02 274.117 1097.04 246.25 1096.99 z"/>
<path transform="translate(0,0)" fill="rgb(248,61,62)" d="M 246.25 1096.99 C 289.228 1085.76 344.708 1082.27 380.946 1053.38 C 410.521 1029.8 355.184 1005.8 341.42 991.522 C 332.617 982.461 327.98 970.146 328.621 957.529 C 329.366 943.144 337.241 928.527 348.156 919.247 C 373.912 897.352 403.829 898.888 435.499 898.717 C 449.734 898.64 464.482 897.91 478.488 898.86 C 472.844 900.408 466.38 901.781 460.614 903.126 C 432.755 906.431 380.083 921.144 363.387 944.862 C 342.093 985.444 444.961 994.305 427.1 1037.62 C 418.243 1059.1 371.914 1076.39 351.598 1081.24 C 324.686 1089.02 274.117 1097.04 246.25 1096.99 z"/>
<path transform="translate(0,0)" fill="url(#Gradient2)" d="M 363.387 944.862 C 365.943 947.778 368.101 949.962 368.026 954.071 C 370.876 968.528 377.435 971.129 388.104 978.519 C 403.503 989.186 433.828 1002.53 437.368 1022.83 C 443.71 1059.19 378.84 1081.12 354.335 1087.92 C 354.631 1084.37 353.511 1083.79 351.598 1081.24 C 371.914 1076.39 418.243 1059.1 427.1 1037.62 C 444.961 994.305 342.093 985.444 363.387 944.862 z"/>
<path transform="translate(0,0)" fill="url(#Gradient1)" d="M 363.387 944.862 C 380.083 921.144 432.755 906.431 460.614 903.126 C 463.12 905.709 463.363 905.786 466.251 907.658 C 437.023 913.49 380.644 924.934 368.026 954.071 C 368.101 949.962 365.943 947.778 363.387 944.862 z"/>
<path transform="translate(0,0)" fill="rgb(110,48,42)" d="M 531.494 899.889 C 543.951 898.084 569.648 898.811 582.597 899.579 C 577.948 900.514 571.515 901.877 566.876 901.697 C 561.865 898.485 539.721 900.188 531.494 899.889 z"/>
<path transform="translate(0,0)" fill="rgb(254,254,254)" d="M 1335.28 959.277 C 1345.85 959.041 1357.42 959.529 1368.06 959.767 C 1366.61 965.515 1364.99 971.646 1363.18 977.273 C 1350.9 1015.61 1343.88 1056.73 1331.75 1094.95 C 1320.09 1094.7 1308.43 1094.7 1296.77 1094.94 C 1291.79 1071.59 1284.03 1047.58 1278.94 1023.77 C 1278.49 1020.79 1278.42 1017.34 1276.61 1015.17 C 1274.32 1020.68 1271.73 1033.97 1269.94 1040.89 C 1265.31 1058.84 1259.95 1076.79 1256.34 1094.92 L 1221.79 1095.02 C 1215.27 1078.56 1210.2 1053.9 1205.71 1036.04 C 1199.28 1010.45 1192.05 985.078 1184.03 959.944 C 1195.34 959.546 1206.35 959.671 1217.65 959.754 C 1225.36 988.501 1232.44 1020.52 1239.67 1049.67 C 1244.1 1022.44 1256.54 990.462 1262.23 962.881 C 1262.79 960.19 1264.23 960.213 1266.39 959.453 C 1274.27 959.264 1282.01 959.5 1289.89 959.688 C 1298.1 988.898 1304.82 1021.39 1313.82 1049.83 C 1320.57 1019.55 1327.73 989.365 1335.28 959.277 z"/>
<path transform="translate(0,0)" fill="rgb(254,254,254)" d="M 750.549 959.814 C 773.391 959.401 803.039 958.622 825.16 962.603 C 849.858 967.047 859.719 994.646 853.37 1016.65 C 849.465 1030.18 841.648 1036 829.565 1042.03 L 830.271 1043.44 C 838.35 1059.94 850.515 1078.24 859.896 1094.56 C 852.507 1095.19 843.068 1094.94 835.5 1094.94 L 824.316 1094.84 C 814.868 1080.2 806.838 1062.72 797.737 1047.26 L 780.993 1047.14 C 780.882 1063.1 780.986 1079.07 781.304 1095.03 C 770.856 1094.89 760.407 1094.8 749.958 1094.77 C 749.812 1054.49 748.713 999.151 750.549 959.814 z"/>
<path transform="translate(0,0)" fill="rgb(0,0,0)" d="M 781.166 986.951 C 794.802 986.792 822.899 982.245 823.239 1000.93 C 823.389 1009.19 822.769 1011.36 817.997 1017.84 C 807.436 1023.84 793.007 1021.93 780.924 1021.32 C 781.402 1010.33 781.152 998.037 781.166 986.951 z"/>
<path transform="translate(0,0)" fill="rgb(254,254,254)" d="M 1643.23 959.419 C 1653.19 959.266 1663.3 959.342 1673.27 959.323 C 1673.18 975.002 1673.25 990.682 1673.5 1006.36 C 1683.37 999.319 1689.66 995.308 1701.84 995.204 C 1742.99 994.855 1743.41 1030.7 1742.26 1061.52 C 1741.86 1072.26 1742.27 1084.53 1742.28 1094.81 C 1732.31 1094.96 1722.05 1094.73 1712.06 1094.62 L 1712.03 1061.32 C 1712.18 1047.43 1715.34 1022.11 1695.54 1020.88 C 1689.62 1020.49 1683.82 1022.59 1679.51 1026.66 C 1677.52 1028.55 1674.54 1032.8 1674.21 1035.35 C 1671.91 1053.1 1673.07 1076.9 1673.05 1094.86 L 1643.07 1094.88 C 1643.9 1049.94 1642.54 1004.4 1643.23 959.419 z"/>
<path transform="translate(0,0)" fill="rgb(254,254,254)" d="M 903.558 996.319 C 977.45 988.873 943.048 1060.38 956.358 1070.55 C 959.206 1070.17 959.713 1069.72 962.183 1070.92 C 966.212 1076.39 964.915 1087.58 964.731 1094.76 C 948.265 1095.75 939.19 1098.78 926.534 1086.2 C 909.04 1098.4 890.581 1100.49 871.924 1089.18 C 861.655 1079.6 858.241 1063.82 865.217 1051.29 C 876.871 1030.36 903.836 1039.55 921.773 1035.18 C 928.94 1029.1 918.444 1020.17 911.345 1019.74 C 899.456 1019.03 892.861 1025.08 884.11 1031.72 C 878.087 1027.84 871.558 1023.7 867.528 1017.7 C 865.876 1004.9 893.817 997.636 903.558 996.319 z"/>
<path transform="translate(0,0)" fill="rgb(0,0,0)" d="M 901.768 1053.21 C 907.724 1052.91 916.818 1051.59 921.907 1055.49 C 928.873 1060.82 917.707 1072.32 913.001 1075.69 C 895.278 1082.33 881.081 1062.31 901.768 1053.21 z"/>
<path transform="translate(0,0)" fill="rgb(254,254,254)" d="M 1398.99 996.335 C 1476.1 990.584 1437.6 1060.14 1452.9 1070.91 C 1455.73 1070.27 1457.21 1069.55 1459.76 1070.82 C 1463.7 1076.5 1462.45 1087.52 1462.28 1094.84 C 1444.5 1096.49 1436.82 1097.98 1423.51 1085.24 C 1408.86 1100.05 1388.49 1098.69 1370.95 1090.12 C 1358.64 1080.82 1355.29 1068.77 1360.04 1054.18 C 1368.66 1027.75 1405.49 1041.46 1420.1 1035 L 1420.66 1032.43 C 1413.85 1002.69 1391.98 1030.49 1377.21 1028.7 C 1371.41 1027.99 1366.18 1020.93 1362.97 1016.17 L 1362.19 1014.99 C 1375.39 1001.96 1380.56 998.984 1398.99 996.335 z"/>
<path transform="translate(0,0)" fill="rgb(0,0,0)" d="M 1395.59 1053.2 C 1403.53 1052.8 1418.92 1049.88 1420.84 1060.07 C 1419.63 1065.18 1414.63 1071.83 1410.45 1074.97 C 1397.89 1082.71 1378 1068.56 1395.59 1053.2 z"/>
<path transform="translate(0,0)" fill="rgb(254,254,254)" d="M 1114.18 996.193 C 1116.96 995.973 1119.74 995.827 1122.52 995.753 C 1159.87 995.117 1175.22 1018.83 1174.88 1053.53 C 1165.41 1053.19 1107.38 1051.43 1103.31 1054.8 C 1103.53 1059.11 1106.29 1062.59 1109.55 1065.32 C 1121.91 1075.7 1138.52 1071.68 1148.48 1060.84 L 1149.39 1059.83 C 1152.25 1061.61 1155.52 1064.12 1158.29 1066.12 L 1170.85 1075.8 C 1152.57 1098.12 1118.23 1102.31 1093.53 1088.3 C 1069.48 1074.66 1065.86 1038.51 1080.28 1016.79 C 1088.57 1004.31 1099.97 999.137 1114.18 996.193 z"/>
<path transform="translate(0,0)" fill="rgb(0,0,0)" d="M 1118.03 1018.12 C 1128.26 1017.45 1136.35 1019.23 1143.13 1027.69 C 1143.98 1031.21 1144.19 1029.58 1142.55 1032.74 C 1139.34 1034.81 1134.8 1033.99 1130.77 1033.81 C 1123.57 1033.66 1108.58 1036.4 1104.48 1030.9 C 1104.55 1023.83 1112.54 1020.55 1118.03 1018.12 z"/>
<path transform="translate(0,0)" fill="rgb(248,61,62)" d="M 496.369 959.94 C 512.742 959.891 529.116 959.926 545.488 960.044 C 538.224 1000.62 528.567 1055.87 518.317 1095.39 C 502.502 1095.56 486.686 1095.5 470.873 1095.22 C 473.993 1073.23 478.672 1053.83 483.058 1032.33 C 487.824 1008.26 492.261 984.128 496.369 959.94 z"/>
<path transform="translate(0,0)" fill="rgb(254,254,254)" d="M 1584.5 995.314 C 1597.04 994.813 1633.37 1000.59 1632.96 1016.73 C 1630.13 1020.6 1619.05 1029.68 1614.59 1033.83 C 1604.61 1023.21 1589.33 1016.48 1576.14 1025.87 C 1570.46 1029.92 1566.71 1036.13 1565.76 1043.04 C 1563.56 1058.18 1574.55 1068.81 1589.12 1069.92 C 1599.93 1070.74 1607.3 1065.59 1614.95 1058.8 L 1623.45 1065.71 C 1627.27 1068.86 1631.32 1072.69 1635.03 1076.05 C 1615.62 1099.27 1579.14 1103.56 1554.76 1086.02 C 1544.28 1078.43 1537.36 1066.87 1535.63 1054.04 C 1533.56 1040.29 1537.21 1026.29 1545.72 1015.3 C 1555.77 1002.5 1568.99 997.199 1584.5 995.314 z"/>
<path transform="translate(0,0)" fill="rgb(254,254,254)" d="M 1022.67 995.409 C 1041.15 994.756 1056.9 1001.15 1068.62 1015.66 C 1062.05 1021.67 1055 1027.03 1048.11 1033.41 C 1043.42 1028.51 1038.45 1024.18 1031.48 1022.42 C 1008.87 1015.54 989.384 1040.55 1003.63 1059.67 C 1016.86 1077.44 1035.71 1068.84 1049.11 1058.77 L 1059.12 1067.2 C 1062.35 1069.72 1066.12 1073.52 1069.17 1076.4 C 1038.59 1110.15 974.501 1101.02 968.822 1050.48 C 965.071 1017.1 991.104 997.779 1022.67 995.409 z"/>
<path transform="translate(0,0)" fill="rgb(254,254,254)" d="M 1477.06 967.027 L 1506.59 967.182 C 1506.61 977.125 1506.54 987.069 1506.39 997.011 L 1530 997.054 C 1530.06 1005.15 1529.93 1013.38 1529.88 1021.48 L 1506.55 1021.24 C 1506.61 1027.55 1506.6 1034.28 1506.34 1040.57 C 1505.4 1063.5 1505.65 1070.03 1530.24 1068.52 L 1530.33 1087.25 C 1530.22 1091.52 1530.93 1091.12 1528.83 1093.85 C 1525.09 1095.44 1523.54 1095.61 1519.42 1095.81 C 1467.4 1098.3 1476.52 1063.61 1476.97 1021.42 C 1472.24 1021.42 1467.26 1021.19 1462.5 1021.05 C 1461.93 1013.16 1462.15 1005.02 1462.23 997.091 L 1476.81 997.015 L 1477.06 967.027 z"/>
</svg>