<svg version="1.1" xmlns="http://www.w3.org/2000/svg" style="display: block;" viewBox="0 0 2048 2048" width="1024" height="1024" preserveAspectRatio="none">
<path transform="translate(0,0)" fill="rgb(0,0,0)" d="M 0 0 L 2048 0 L 2048 2048 L 0 2048 L 0 0 z"/>
<path transform="translate(0,0)" fill="rgb(253,201,65)" d="M 394.652 880.13 C 396.46 880.174 398.276 880.247 400.066 880.533 C 409.39 882.023 515.552 947.11 518.645 953.272 C 520.724 957.415 521.33 964.619 521.597 969.267 C 522.417 983.587 523.319 1086.38 519.508 1093.82 C 517.51 1097.71 512.871 1100.9 509.342 1103.4 C 492.957 1114.98 414.466 1163.55 399.307 1168.48 C 397.84 1168.42 396.379 1168.32 394.925 1168.11 C 385.385 1166.72 294.087 1110.87 281.161 1101.23 C 277.501 1098.51 274.901 1095.47 272.249 1091.78 C 271.018 1075.63 268.894 963.541 274.18 954.52 C 276.325 950.86 282.038 946.805 285.509 944.363 C 298.484 935.233 383.644 883.097 394.652 880.13 z"/>
<path transform="translate(0,0)" fill="rgb(254,254,254)" d="M 394.552 942.92 C 403.943 943.338 456.884 977.698 465.814 985.07 C 466.42 997.863 467.126 1050.26 464.326 1061.45 C 462.815 1067.48 406.091 1101.07 398.349 1104.14 C 390.5 1103.87 336.232 1069.73 327.587 1063.14 C 325.95 1043.12 326.812 1007.32 327.116 986.491 C 335.517 977.861 381.813 950.22 394.552 942.92 z"/>
<path transform="translate(0,0)" fill="rgb(253,201,65)" d="M 396.644 989.73 C 407.093 997.12 415.055 1002.3 425.952 1008.86 L 426.123 1040.16 L 396.501 1057.97 C 387.233 1053.16 376.042 1045.94 366.957 1040.42 L 366.861 1008.64 C 378.048 1003.06 386.593 996.922 396.644 989.73 z"/>
<path transform="translate(0,0)" fill="rgb(254,254,254)" d="M 1339.33 967.504 C 1345.69 967.112 1352.95 967.182 1359.38 967.107 C 1368.68 997.965 1378.25 1034.5 1386.43 1065.85 C 1396.27 1035.69 1404.91 998.298 1412.24 967.558 C 1422.8 967.367 1433.36 967.5 1443.91 967.959 C 1442.39 974.861 1439.85 982.567 1437.77 989.408 C 1432.98 1007.64 1426.91 1026.96 1421.89 1045.35 C 1417.56 1061.18 1410.79 1088 1404.76 1102.24 L 1372.58 1102.1 C 1364.51 1078.86 1355.64 1042.08 1349.41 1017.58 C 1341.01 1041.53 1333.71 1075.97 1325.78 1102.22 C 1314.76 1101.94 1303.28 1102.11 1292.22 1102.11 C 1282.33 1076.36 1275.57 1043.67 1267.21 1016.73 C 1265.19 1010.21 1254.57 974.544 1254.23 969.19 C 1256.18 967.214 1256.18 967.847 1259.71 967.462 C 1267.96 967.589 1276.22 967.562 1284.47 967.38 C 1286.23 972.884 1287.98 979.298 1289.31 984.961 C 1295.59 1011.6 1304.92 1039.1 1310.02 1065.87 C 1321.46 1037.04 1328.05 996.323 1339.33 967.504 z"/>
<path transform="translate(0,0)" fill="rgb(254,254,254)" d="M 1213.88 1004.2 C 1281.3 1000.22 1282.89 1102.44 1219.7 1104.56 C 1207.52 1104.97 1199.67 1101.01 1191.12 1092.78 C 1191.19 1100.9 1191.21 1109.02 1191.18 1117.14 C 1191.28 1126.18 1191.19 1135.22 1190.9 1144.25 L 1164.04 1144.03 C 1163.77 1098 1163.77 1051.96 1164.04 1005.92 C 1173.12 1005.75 1182.2 1003.41 1189.29 1007.63 C 1191.6 1010.6 1191.07 1013.49 1191.12 1017.41 C 1199.53 1008.74 1202.66 1007.05 1213.88 1004.2 z"/>
<path transform="translate(0,0)" fill="rgb(0,0,0)" d="M 1212.59 1029.14 C 1244.46 1031.02 1246.46 1073.1 1215.46 1079.96 C 1184.47 1078.36 1181.88 1036.84 1212.59 1029.14 z"/>
<path transform="translate(0,0)" fill="rgb(254,254,254)" d="M 759.443 967.517 C 767.666 967.076 776.336 967.176 784.603 967.137 C 785.237 982.999 784.908 1000.17 784.877 1016.14 C 835.901 975.824 882.969 1044.92 844.768 1091.58 C 825.044 1108.16 804.717 1109.98 785.24 1092.36 L 783.651 1102.18 L 756.463 1102.01 C 756.748 1071.47 756.819 1040.92 756.676 1010.38 C 756.665 1003.95 756.198 973.361 757.236 968.601 L 759.443 967.517 z"/>
<path transform="translate(0,0)" fill="rgb(0,0,0)" d="M 800.897 1030.21 C 806.09 1029.48 809.77 1029.19 814.857 1030.92 C 820.841 1032.92 825.718 1037.32 828.311 1043.07 C 835.149 1058.23 827.689 1072.43 813.296 1079.12 C 809.159 1079.89 805.732 1080.18 801.579 1079.04 C 795.602 1077.4 790.537 1073.42 787.531 1068 C 779.048 1052.93 786.021 1037.5 800.897 1030.21 z"/>
<path transform="translate(0,0)" fill="rgb(254,254,254)" d="M 1470.16 1004.22 C 1490.01 1002.3 1490.38 1008.68 1504.45 1015.05 C 1504.84 1011.43 1504.08 1008.81 1506.14 1006.2 C 1512.07 1004.89 1524.8 1005.61 1531.39 1005.75 C 1532.26 1034.95 1532.57 1073.1 1531.55 1102.05 C 1526.82 1101.97 1522.57 1102.1 1517.83 1102.43 C 1507.12 1103.18 1505.32 1102.99 1503.6 1092.83 C 1497.91 1098.36 1492.11 1101.79 1484.39 1103.67 C 1473.22 1106.26 1461.48 1104.22 1451.84 1098.01 C 1423.51 1079.58 1423.06 1028.27 1452.59 1010.66 C 1459.11 1006.77 1462.93 1005.69 1470.16 1004.22 z"/>
<path transform="translate(0,0)" fill="rgb(0,0,0)" d="M 1475.07 1030.14 C 1479.11 1029.76 1483.26 1029.51 1487.2 1030.71 C 1493.17 1032.55 1498.17 1036.68 1501.11 1042.19 C 1504.44 1048.61 1505.01 1056.1 1502.69 1062.94 C 1499.81 1071.42 1494.98 1075.08 1487.38 1078.89 C 1483.17 1079.69 1479.88 1079.99 1475.64 1078.89 C 1469.69 1077.34 1464.65 1073.39 1461.71 1067.99 C 1453.47 1053.08 1460.34 1037.42 1475.07 1030.14 z"/>
<path transform="translate(0,0)" fill="rgb(254,254,254)" d="M 680.475 1004.27 C 697.744 1002.47 702.175 1005.32 716.427 1014.9 C 717.857 1011.54 716.639 1010.42 718.135 1006.6 C 722.491 1005.1 738.557 1005.83 744.183 1005.94 L 744.073 1102.22 C 737.316 1101.99 730.615 1102.86 724.018 1102.41 C 716.881 1101.93 717.35 1098.44 716.664 1092.86 C 712.759 1096.02 708.096 1099.49 703.468 1101.44 C 693.088 1105.86 681.319 1105.67 671.09 1100.91 C 659.434 1095.47 650.562 1085.43 646.601 1073.2 C 636.704 1043.45 649.497 1014 680.475 1004.27 z"/>
<path transform="translate(0,0)" fill="rgb(0,0,0)" d="M 692.473 1029.28 C 721.365 1028.6 727.231 1068.84 698.085 1079.53 C 663.537 1078.62 663.282 1035.91 692.473 1029.28 z"/>
<path transform="translate(0,0)" fill="rgb(254,254,254)" d="M 1105.24 1003.42 C 1133.24 1002.83 1156.43 1025.04 1157.06 1053.05 C 1157.69 1081.05 1135.52 1104.27 1107.51 1104.95 C 1079.44 1105.62 1056.15 1083.39 1055.53 1055.32 C 1054.9 1027.25 1077.17 1004 1105.24 1003.42 z"/>
<path transform="translate(0,0)" fill="rgb(0,0,0)" d="M 1104.35 1029.2 C 1133.85 1029.5 1139.39 1070.07 1110.03 1079.63 C 1077.31 1078.43 1075.53 1036.8 1104.35 1029.2 z"/>
<path transform="translate(0,0)" fill="rgb(254,254,254)" d="M 1698.92 967.457 C 1707.31 967.328 1715.71 967.391 1724.1 967.647 C 1724.22 984.958 1724.17 1002.27 1723.95 1019.58 C 1724.7 1018.74 1725.46 1017.91 1726.22 1017.08 C 1740.12 1001.96 1760.89 998.091 1776.9 1013.1 C 1790.42 1025.77 1788.2 1050.58 1788.11 1067.91 L 1787.89 1102.25 L 1760.35 1102.02 C 1759.8 1090.69 1760.05 1077.26 1760.03 1065.75 C 1760.27 1051.04 1763.12 1029.82 1742.32 1028.89 C 1717.92 1027.81 1724.54 1085.29 1723.98 1102.27 C 1714.81 1102.29 1705.31 1102.05 1696.12 1101.93 L 1696.06 1010.19 C 1696.05 1002.12 1695.45 974.747 1696.74 968.7 L 1698.92 967.457 z"/>
<path transform="translate(0,0)" fill="rgb(254,254,254)" d="M 940.099 1004.15 C 943.115 1003.87 946.143 1003.73 949.171 1003.73 C 984.106 1003.58 995.222 1030.77 995.077 1060.98 C 984.116 1061.1 933.67 1059.53 927.922 1062.97 C 931.094 1089.7 957.486 1082.29 974.16 1073.8 C 976.708 1072.5 979.159 1074.57 981.263 1075.81 C 985.126 1078.4 988.783 1081.24 992.493 1084.05 C 976.384 1105.12 945.042 1111.05 922.513 1097.41 C 912.107 1091.14 904.67 1080.94 901.888 1069.11 C 894.489 1038.96 908.446 1011.25 940.099 1004.15 z"/>
<path transform="translate(0,0)" fill="rgb(0,0,0)" d="M 944.024 1024.23 C 960.565 1023.13 964.911 1028.91 971.692 1042.7 C 965.972 1042.94 959.441 1042.85 953.65 1042.91 C 948.054 1043 931.741 1044.05 928.149 1041.6 C 926.456 1033.44 937.491 1026.82 944.024 1024.23 z"/>
<path transform="translate(0,0)" fill="rgb(254,254,254)" d="M 564.25 967.106 C 583.24 966.804 603.216 967.219 622.281 967.09 C 633.437 967.014 657.696 966.327 667.207 968.165 C 669.809 972.055 668.342 987.619 668.077 993.087 L 631.958 993.034 L 631.952 1066.12 L 631.901 1102 L 603.872 1101.91 C 602.589 1068.56 603.596 1026.75 603.726 993.075 L 563.843 992.969 C 563.689 983.674 563.697 976.357 564.25 967.106 z"/>
<path transform="translate(0,0)" fill="rgb(254,254,254)" d="M 1640.76 1004.17 C 1662.9 1002.21 1680.58 1007.15 1691.91 1027.77 C 1683.64 1032.88 1679.57 1035.45 1672.11 1041.66 C 1667.43 1035.26 1661.74 1030.57 1653.65 1029.59 C 1647.78 1028.88 1641.87 1030.54 1637.23 1034.21 C 1613.32 1053.02 1638.9 1098.03 1668.55 1071.81 C 1670.15 1070.39 1671.54 1069.32 1673.5 1068.44 L 1675.87 1069.91 C 1680.47 1072.93 1687.29 1076.39 1689.73 1080.6 C 1689.94 1082.26 1690.15 1083.81 1689.23 1085.33 C 1676.33 1106.52 1643.64 1109.33 1623.88 1098.13 C 1612.93 1091.81 1604.96 1081.39 1601.71 1069.17 C 1593.45 1038.55 1610.02 1011.96 1640.76 1004.17 z"/>
<path transform="translate(0,0)" fill="rgb(254,254,254)" d="M 1548.75 979.054 C 1557.66 978.595 1566.56 978.824 1575.47 978.94 L 1576.1 1005.07 L 1597.94 1005 C 1598.04 1011.47 1597.83 1018.38 1597.73 1024.89 L 1576.09 1025 C 1575.94 1034.71 1573.18 1069.31 1580.34 1076.06 C 1582.86 1078.44 1593.02 1077.33 1597.03 1077.1 L 1597.95 1086.64 L 1597.93 1101.91 C 1541.7 1105.39 1549.17 1085.74 1548.83 1039.94 C 1548.81 1035.98 1549.13 1030.98 1547.56 1027.35 C 1541.23 1021.79 1536.14 1013.12 1541.64 1005.08 C 1545 1004.39 1545.06 1004.78 1547.64 1002.8 C 1548.83 998.49 1548.52 984.73 1548.75 979.054 z"/>
<path transform="translate(0,0)" fill="rgb(254,254,254)" d="M 1005.1 979.027 C 1013.68 978.618 1023.29 978.896 1031.96 978.959 C 1032.04 987.615 1032.18 996.27 1032.38 1004.92 L 1053.95 1004.84 C 1054.04 1012.29 1053.89 1017.45 1053.33 1024.88 L 1032.29 1025.01 L 1031.9 1054.49 C 1031.75 1075.98 1033.16 1078.27 1053.18 1076.9 C 1053.7 1080.51 1053.9 1084.99 1054.16 1088.68 L 1054.02 1101.92 C 997.849 1105.45 1005.39 1084.81 1004.97 1039.3 C 1004.94 1035.78 1005.26 1030.54 1004.01 1027.3 C 999.509 1023.57 996.669 1021.55 996.299 1015.36 C 996.119 1012.35 995.983 1007.26 997.969 1005.01 C 1000.79 1004.42 1001.66 1004.45 1004.14 1002.96 C 1005.48 998.807 1005.06 984.104 1005.1 979.027 z"/>
<path transform="translate(0,0)" fill="rgb(254,254,254)" d="M 866.339 967.379 C 875.038 967.428 883.737 967.525 892.434 967.669 C 892.805 971.979 893.118 994.827 892.719 998.663 C 891.481 1010.59 894.822 1097.27 890.812 1102.08 L 864.927 1102.08 C 863.75 1072.2 864.117 1002.83 864.695 969.268 C 865.243 968.638 865.791 968.008 866.339 967.379 z"/>
</svg>